<svg width="156" height="177" viewBox="0 0 156 177" fill="none" xmlns="http://www.w3.org/2000/svg">
<path d="M77.8751 167.372C115.686 167.372 146.337 136.721 146.337 98.9105C146.337 61.1 115.686 30.4485 77.8751 30.4485C40.0646 30.4485 9.41309 61.1 9.41309 98.9105C9.41309 136.721 40.0646 167.372 77.8751 167.372Z" fill="url(#paint0_linear_75_211)"/>
<mask id="mask0_75_211" style="mask-type:luminance" maskUnits="userSpaceOnUse" x="9" y="30" width="138" height="138">
<path d="M145.571 109.076C151.186 71.6849 125.426 36.8219 88.0353 31.207C50.6445 25.5922 15.7815 51.3517 10.1666 88.7425C4.55175 126.133 30.3113 160.996 67.7021 166.611C105.093 172.226 139.956 146.467 145.571 109.076Z" fill="white"/>
</mask>
<g mask="url(#mask0_75_211)">
<path opacity="0.45" d="M125.756 99.1182C131.991 92.8835 131.991 82.7752 125.756 76.5405C119.522 70.3058 109.413 70.3058 103.178 76.5405C96.9438 82.7752 96.9438 92.8835 103.178 99.1182C109.413 105.353 119.522 105.353 125.756 99.1182Z" fill="#FFECCA"/>
<path opacity="0.94" d="M123.875 97.2366C129.07 92.0411 129.07 83.6176 123.875 78.4221C118.679 73.2266 110.256 73.2266 105.06 78.4221C99.8646 83.6176 99.8646 92.0411 105.06 97.2366C110.256 102.432 118.679 102.432 123.875 97.2366Z" fill="#FFF2CF"/>
</g>
<mask id="mask1_75_211" style="mask-type:luminance" maskUnits="userSpaceOnUse" x="9" y="30" width="138" height="138">
<path d="M145.571 109.076C151.186 71.6849 125.426 36.8219 88.0353 31.207C50.6445 25.5922 15.7815 51.3517 10.1666 88.7425C4.55175 126.133 30.3113 160.996 67.7021 166.611C105.093 172.226 139.956 146.467 145.571 109.076Z" fill="white"/>
</mask>
<g mask="url(#mask1_75_211)">
<path d="M146.331 78.3635C141.538 83.1575 127.94 95.9725 120.505 98.9105C113.946 101.504 105.049 91.4715 100.94 91.4715C96.8308 91.4715 90.1788 102.037 82.1568 103.602C74.1348 105.167 70.2218 103.602 64.7438 103.602C59.2658 103.602 44.1998 99.1015 37.1568 101.254C30.1138 103.406 24.0478 102.624 17.5918 101.254C11.1348 99.8835 5.06982 99.8835 5.06982 99.8835V120.232L147.7 121.21C147.7 121.21 149.853 88.5365 146.331 78.3635Z" fill="url(#paint1_linear_75_211)"/>
</g>
<mask id="mask2_75_211" style="mask-type:luminance" maskUnits="userSpaceOnUse" x="9" y="30" width="138" height="138">
<path d="M145.571 109.076C151.186 71.6849 125.426 36.8219 88.0353 31.207C50.6445 25.5922 15.7815 51.3517 10.1666 88.7425C4.55175 126.133 30.3113 160.996 67.7021 166.611C105.093 172.226 139.956 146.467 145.571 109.076Z" fill="white"/>
</mask>
<g mask="url(#mask2_75_211)">
<path d="M11.6581 129.949C21.8321 125.514 61.3921 123.362 88.6141 132.558C119.295 142.922 137.201 140.123 155.723 146.645C174.245 153.167 61.4841 190.21 33.8321 175.341C6.1791 160.471 11.6581 129.949 11.6581 129.949Z" fill="#07324C"/>
</g>
<path d="M55.1562 20.3345C56.2382 19.2275 57.5082 18.3225 58.8932 17.5775L56.9802 15.2385C56.9802 15.2385 59.6452 15.8195 61.6422 16.3555C62.8512 15.9145 64.1082 15.5645 65.3812 15.2915L64.1612 11.7185C64.1612 11.7185 66.2602 13.4305 67.7032 14.8765C69.1752 14.6615 70.6392 14.5315 72.0432 14.4645L71.5702 11.1405L74.7922 14.4075C79.3392 14.4235 82.7312 14.9755 82.7312 14.9755C70.2502 1.57951 54.0652 9.35752 47.7392 15.1885C43.2942 3.52652 31.1062 -3.20148 15.7182 1.52652C19.6102 1.52652 22.9082 2.23652 25.7632 3.57852L32.8162 2.89251L27.6592 4.59751C29.2442 5.57551 30.6822 6.77551 31.9912 8.19851H38.5722L33.1772 9.59152C35.0102 11.9055 36.5902 14.6875 38.0022 17.9175C29.1402 9.74852 8.65122 15.3955 5.57422 26.4275C7.19422 25.6075 8.78122 24.9035 10.3372 24.3055L14.4072 19.1385C14.4072 19.1385 13.8882 21.7255 13.6212 23.2015C15.3842 22.6805 17.1042 22.2905 18.7712 22.0485L27.1012 17.3655L22.6822 21.7275C25.1082 21.6805 27.4112 21.9405 29.5862 22.4665L33.5972 19.1385L33.2162 23.6405C34.5452 24.1865 35.8232 24.8285 37.0312 25.5875C22.4412 24.9575 17.5402 39.0885 17.5402 47.4415C18.6842 45.4325 20.1112 43.6445 21.6982 42.0545L22.8692 34.8995L23.7792 40.1545C25.2102 38.9565 26.7182 37.8955 28.2372 36.9585L32.0162 29.6595C32.0162 29.6595 31.5522 33.0205 31.2762 35.2405C33.1892 34.2515 35.0402 33.4495 36.6842 32.8185L39.1122 27.8075C39.1122 27.8075 39.1122 30.2435 39.1122 31.9495C41.4402 31.1755 42.9592 30.8415 42.9592 30.8415C44.7532 31.4395 46.1872 32.4545 47.3402 33.7375L50.5682 30.4475L48.8162 35.7635C49.5812 37.0645 50.1562 38.5195 50.5852 40.0415L54.6722 38.6035L51.1512 42.5245C51.3562 43.6605 51.4972 44.8045 51.5872 45.9305L55.6122 45.3015C55.6122 45.3015 53.2002 48.6265 51.7122 50.6585C51.6262 54.3765 51.1672 57.1085 51.1672 57.1085C70.8862 42.8195 51.8512 26.6385 51.8512 26.6385C54.1432 27.3635 56.3002 28.3155 58.3392 29.3825L58.7472 24.3275L59.9882 30.2685C61.4562 31.1145 62.8402 32.0225 64.1472 32.9565L65.3012 28.2675L66.5672 34.7775C68.4732 36.3025 70.1442 37.8395 71.5732 39.2645L71.5702 39.2565L72.3112 33.6785C72.3112 33.6785 72.6652 37.4895 72.9582 40.6865C75.6572 43.5475 77.1562 45.6565 77.1562 45.6565C79.2072 20.5445 55.1562 20.3345 55.1562 20.3345Z" fill="#07324C"/>
<path d="M41.5922 28.5546C32.1882 50.0686 24.2662 117.312 29.5102 144.84H37.0332C31.5622 105.755 37.2612 54.9516 45.2402 28.5546H41.5922Z" fill="#07324C"/>
<path d="M70.7033 60.1756C70.8393 58.9286 70.7523 57.6805 70.5043 56.4505L72.9603 56.3116C72.9603 56.3116 71.2193 55.0455 69.8513 54.1505C69.5033 53.1915 69.0743 52.2536 68.5873 51.3486L71.4603 50.1245C71.4603 50.1245 69.3013 49.8116 67.6483 49.7426C67.0233 48.7506 66.3483 47.8096 65.6653 46.9386L67.9963 45.4066L64.2813 45.2746C61.9233 42.5816 59.8243 40.8676 59.8243 40.8676C74.6793 40.9746 78.1563 54.8345 77.7633 61.7755C87.3803 58.0535 97.8973 61.6256 102.877 73.3486C100.867 71.0356 98.7183 69.4635 96.4013 68.4995L93.1893 63.9346L94.7833 67.9285C93.3503 67.5205 91.8553 67.3205 90.2853 67.3195L86.8863 63.4095L88.7983 67.3755C86.3993 67.5485 83.8373 68.1275 81.0803 69.0515C90.7853 69.8605 97.8223 85.1155 92.4873 92.9635C92.1653 91.5535 91.7873 90.2266 91.3593 88.9756L92.5003 83.7375C92.5003 83.7375 91.1443 85.4576 90.3553 86.4216C89.7713 85.0906 89.1283 83.8555 88.4183 82.7325L87.0553 75.2276L86.5993 80.2325C85.3753 78.7655 84.0233 77.5386 82.5693 76.5336L82.5863 72.3345L79.9573 75.0175C78.9283 74.5255 77.8653 74.1165 76.7653 73.8125C84.6963 82.1375 78.3573 92.7606 73.1143 97.3176C73.7843 95.5415 74.1703 93.7185 74.3483 91.9075L78.2353 87.3076L74.4663 89.6335C74.4793 88.1295 74.3663 86.6546 74.1693 85.2406L76.7993 79.0125C76.7993 79.0125 74.9293 81.1215 73.6783 82.4975C73.3113 80.8205 72.8583 79.2836 72.4053 77.9626L74.2973 73.7856C74.2973 73.7856 72.7683 75.1145 71.6973 76.0455C70.9803 74.2405 70.4063 73.1555 70.4063 73.1555C69.1043 72.4165 67.7263 72.1176 66.3253 72.1326L66.7233 68.4196L64.2913 72.3616C63.0793 72.6166 61.8693 73.0685 60.6923 73.6445L59.4843 70.4315L58.8413 74.6626C58.0223 75.1606 57.2313 75.7015 56.4783 76.2616L54.7943 73.5266C54.7943 73.5266 53.9533 76.7736 53.4463 78.7666C51.1563 80.8466 49.6793 82.6095 49.6793 82.6095C48.4643 63.0965 68.4513 65.5786 68.4513 65.5786C66.8123 64.6126 65.1013 63.8505 63.3783 63.2206L66.3403 60.2195L61.9703 62.7236C60.6813 62.3126 59.3963 61.9855 58.1353 61.7195L60.4823 58.4756L55.7423 61.2755C53.8003 60.9745 51.9723 60.8216 50.3403 60.7486L50.3473 60.7455L53.4663 57.2616C53.4663 57.2616 50.8913 59.1305 48.7333 60.7005C45.5433 60.6575 43.4453 60.9176 43.4453 60.9176C58.1493 45.9996 70.7033 60.1756 70.7033 60.1756Z" fill="#07324C"/>
<path d="M69.3644 71.2046C57.7784 83.2756 37.1914 126.172 34.9404 145.776L40.4154 147.587C45.0484 120.228 60.3934 87.7496 72.0184 72.0826L69.3644 71.2046Z" fill="#07324C"/>
<defs>
<linearGradient id="paint0_linear_75_211" x1="77.7096" y1="104.135" x2="80.0282" y2="30.9348" gradientUnits="userSpaceOnUse">
<stop stop-color="#C2ECD3"/>
<stop offset="0.9959" stop-color="#1D74B5"/>
</linearGradient>
<linearGradient id="paint1_linear_75_211" x1="76.7112" y1="121.068" x2="76.7112" y2="97.3976" gradientUnits="userSpaceOnUse">
<stop stop-color="#77B5C5"/>
<stop offset="0.9959" stop-color="#1D63BF"/>
</linearGradient>
</defs>
</svg>
